<?xml version="1.0" encoding="UTF-8" standalone="no"?>
<svg width="369px" height="78px" viewBox="0 0 369 78" version="1.1" xmlns="http://www.w3.org/2000/svg" xmlns:xlink="http://www.w3.org/1999/xlink" xmlns:sketch="http://www.bohemiancoding.com/sketch/ns">
    <!-- Generator: Sketch 3.5.2 (25235) - http://www.bohemiancoding.com/sketch -->
    <title>NPM CDN</title>
    <desc>Created with Sketch.</desc>
    <defs></defs>
    <g id="Page-1" stroke="none" stroke-width="1" fill="none" fill-rule="evenodd" sketch:type="MSPage">
        <g id="NPM-CDN" sketch:type="MSLayerGroup" fill="#CD3632">
            <g id="npm-logo" sketch:type="MSShapeGroup">
                <g id="Page-1">
                    <g>
                        <path d="M0,0 L200,0 L200,68 L100,68 L100,78 L56,78 L56,68 L0,68 L0,0 Z M11.3217004,55.797266 L33.4144952,55.797396 L33.4144955,22.2237169 L44.5217004,22.2237169 L44.5217004,55.7973964 L55.5289908,55.7973964 L55.5289908,11.3971777 L11.3217004,11.3971777 L11.3217004,55.797266 Z M66.5333332,11.2 L66.6666668,67.2 L88.6666668,67.2 L88.6666668,56.0269232 L110.938338,56.0269232 L110.938338,11.2 L66.5333332,11.2 Z M88.4,22 L100,22 L100,44.8 L88.4,44.8 L88.4,22 Z M122.133333,11.2 L122.133333,55.6 L144.26586,55.6 L144.26586,22.2664032 L155.332532,22.2664032 L155.332532,55.6002188 L166.387155,55.6002188 L166.387155,22.4 L177.465864,22.4 L177.465864,55.6 L188.53548,55.6 L188.53548,11.2 L122.133333,11.2 Z" id="Rectangle-1"></path>
                    </g>
                </g>
            </g>
            <g id="npm-logo" transform="translate(194.000000, 0.000000)" sketch:type="MSShapeGroup">
                <g id="Page-1">
                    <g>
                        <path d="M0,0 L175,0 L175,68 L100,68 L55.5999985,67.9999992 L0,68 L0,0 Z M55.4911489,55.4978718 L55.4912781,33.405077 L22.1205167,33.4050767 L22.1205167,22.2978718 L55.4912785,22.2978718 L55.4912785,11.2905814 L11.3594127,11.2905814 L11.3594127,55.4978718 L55.4911489,55.4978718 Z M66.5333332,11.1323077 L66.5333332,55.6615377 L88.6666664,55.6615377 L110.93834,55.6615377 L110.938338,11.1323077 L66.5333332,11.1323077 Z M83,16 L91.5,25 L100,34 L91.5,42 L83,50 L83,16 Z M122.133333,11.1323077 L122.133333,55.263956 L143.420759,55.263956 L143.420759,22.131826 L154.064864,22.131826 L154.064863,22.2646152 L164.697381,22.2646154 L154.064863,22.2646152 L154.064863,55.2639576 L164.697382,55.2639576 L164.697382,11.1323077 L122.133333,11.1323077 Z" id="Rectangle-1"></path>
                    </g>
                </g>
            </g>
        </g>
    </g>
</svg>